<svg id="Layer_1" data-name="Layer 1" xmlns="http://www.w3.org/2000/svg" viewBox="0 0 180 45"><defs><style>.cls-1{fill:#d9be80;}</style></defs><title>Untitled-1</title><g id="Group_3" data-name="Group 3"><path class="cls-1" d="M172.46,24.06a1.47,1.47,0,0,1-.73-.19L148.2,10.64a1.5,1.5,0,0,1-.57-2,1.49,1.49,0,0,1,2-.57L173.2,21.26a1.5,1.5,0,0,1-.74,2.8Z"/><path class="cls-1" d="M148.94,37.29a1.5,1.5,0,0,1-.74-2.8l23.53-13.23a1.5,1.5,0,0,1,1.47,2.61L149.67,37.1A1.47,1.47,0,0,1,148.94,37.29Z"/></g><path class="cls-1" d="M156,24H7a1.5,1.5,0,0,1,0-3H156a1.5,1.5,0,0,1,0,3Z"/></svg>
