<svg id="Layer_1" data-name="Layer 1" xmlns="http://www.w3.org/2000/svg" viewBox="0 0 916.1 196.9"><defs><style>.cls-1,.cls-2{stroke:#1d1d1b;stroke-miterlimit:10;}.cls-2{fill:none;stroke-width:10px;}</style></defs><path class="cls-1" d="M91.3,81.5V98.8L108,81.5h11.7L103,98l18.3,25.2H109.6L96.7,104.5l-5.4,5.3v13.4H81.9V81.5Z"/><path class="cls-1" d="M124.7,93.9a21.2,21.2,0,0,1,4.1-7,18,18,0,0,1,6.7-4.7,22.3,22.3,0,0,1,8.8-1.7,22.8,22.8,0,0,1,8.9,1.7,19,19,0,0,1,6.5,4.7,21.4,21.4,0,0,1,4.2,7,26.3,26.3,0,0,1,1.4,8.6,25.7,25.7,0,0,1-1.4,8.5,20,20,0,0,1-4.2,6.9,18.8,18.8,0,0,1-6.5,4.6,22.8,22.8,0,0,1-8.9,1.7,22.3,22.3,0,0,1-8.8-1.7,17.8,17.8,0,0,1-6.7-4.6,19.8,19.8,0,0,1-4.1-6.9,23.3,23.3,0,0,1-1.4-8.5A23.9,23.9,0,0,1,124.7,93.9Zm8.6,13.8a13.5,13.5,0,0,0,2,4.4,9.3,9.3,0,0,0,3.6,3.2,12.7,12.7,0,0,0,10.8,0,9.3,9.3,0,0,0,3.6-3.2,13.5,13.5,0,0,0,2-4.4,22.4,22.4,0,0,0,.6-5.2,23.3,23.3,0,0,0-.6-5.3,14.6,14.6,0,0,0-2-4.6,10.2,10.2,0,0,0-3.6-3.2,12.7,12.7,0,0,0-10.8,0,10.2,10.2,0,0,0-3.6,3.2,14.6,14.6,0,0,0-2,4.6,23.3,23.3,0,0,0-.6,5.3A22.4,22.4,0,0,0,133.3,107.7Z"/><path class="cls-1" d="M191,81.5a19,19,0,0,1,6.8,1.1,14.1,14.1,0,0,1,4.6,3,12.7,12.7,0,0,1,2.6,4.3,16.9,16.9,0,0,1,.8,5,16.2,16.2,0,0,1-.8,4.9,11.8,11.8,0,0,1-2.6,4.3,11.5,11.5,0,0,1-4.6,3,16.9,16.9,0,0,1-6.8,1.2h-9.9v14.9h-9.4V81.5Zm-2.6,19.6a15.6,15.6,0,0,0,3.1-.2,10.7,10.7,0,0,0,2.7-.9,6.6,6.6,0,0,0,1.8-1.9,7.7,7.7,0,0,0,0-6.4,4.7,4.7,0,0,0-1.8-1.9,6.2,6.2,0,0,0-2.7-.9,15.5,15.5,0,0,0-3.1-.3h-7.3v12.5Z"/><path class="cls-1" d="M243.6,81.5v7.7H221.1v9h20.7v7.1H221.1v10.2h23v7.7H211.7V81.5Z"/><path class="cls-1" d="M259.8,81.5l17.9,28h.1v-28h8.8v41.7h-9.4L259.4,95.3h-.1v27.9h-8.8V81.5Z"/><path class="cls-1" d="M304.3,81.5v16h17.3v-16H331v41.7h-9.4v-18H304.3v18h-9.4V81.5Z"/><path class="cls-1" d="M360.6,81.5l15.9,41.7h-9.7l-3.2-9.3h-16l-3.4,9.3h-9.5l16.2-41.7Zm.5,25.6-5.4-15.3h-.1L350,107.1Z"/><path class="cls-1" d="M405.6,122.9a15,15,0,0,1-6.2,1.3,22.6,22.6,0,0,1-8.8-1.7,18.3,18.3,0,0,1-6.6-4.6,20,20,0,0,1-4.2-6.9,25.7,25.7,0,0,1-1.4-8.5,26.3,26.3,0,0,1,1.4-8.6,21.4,21.4,0,0,1,4.2-7,18.5,18.5,0,0,1,6.6-4.7,22.6,22.6,0,0,1,8.8-1.7,19.9,19.9,0,0,1,6.4,1,16.5,16.5,0,0,1,9.7,7.4,16.1,16.1,0,0,1,2,6.3h-9a8.8,8.8,0,0,0-3.3-5.2,9.3,9.3,0,0,0-5.8-1.8,11.3,11.3,0,0,0-5.4,1.2,12.2,12.2,0,0,0-3.6,3.2,17.3,17.3,0,0,0-2,4.6,23.3,23.3,0,0,0-.6,5.3,22.4,22.4,0,0,0,.6,5.2,16,16,0,0,0,2,4.4,11,11,0,0,0,3.6,3.2,11.3,11.3,0,0,0,5.4,1.2,10.5,10.5,0,0,0,7.2-2.3,10,10,0,0,0,3-6.7h-9.5v-6.8h18v22.5h-6l-.9-4.7A14.2,14.2,0,0,1,405.6,122.9Z"/><path class="cls-1" d="M457.7,81.5v7.7H435.1v9h20.7v7.1H435.1v10.2h23.1v7.7H425.7V81.5Z"/><path class="cls-1" d="M473.9,81.5l17.8,28h.1v-28h8.8v41.7h-9.4L473.5,95.3h-.2v27.9h-8.8V81.5Z"/><path class="cls-1" d="M546.9,81.5l16,41.7h-9.8l-3.2-9.3h-16l-3.4,9.3h-9.4l16.1-41.7Zm.5,25.6L542,91.8h-.1l-5.6,15.3Z"/><path class="cls-1" d="M582.1,106.7H576v17.2h-9.5V80.4h17.8a18.9,18.9,0,0,1,6,.9,11,11,0,0,1,4.5,2.5,11.9,11.9,0,0,1,3,4.3,15,15,0,0,1,1,5.8,11.5,11.5,0,0,1-2,6.7,11.3,11.3,0,0,1-5.7,4.2l9.7,19.1H590.2Zm.5-18.4H576V98.7h8.4a6.1,6.1,0,0,0,2.5-.7,3.9,3.9,0,0,0,1.7-1.4,4.5,4.5,0,0,0,.7-2.7,8.7,8.7,0,0,0-.4-2.5,5.2,5.2,0,0,0-1.2-1.7A8.4,8.4,0,0,0,582.6,88.3Z"/><path class="cls-1" d="M603.2,89.2V81.5h35v7.7H625.4v34H616v-34Z"/><path class="cls-1" d="M668.5,122.9a15.3,15.3,0,0,1-6.2,1.3,22.3,22.3,0,0,1-8.8-1.7,17.8,17.8,0,0,1-6.7-4.6,19.8,19.8,0,0,1-4.1-6.9,23.3,23.3,0,0,1-1.4-8.5,23.9,23.9,0,0,1,1.4-8.6,21.2,21.2,0,0,1,4.1-7,18,18,0,0,1,6.7-4.7,22.3,22.3,0,0,1,8.8-1.7,19.9,19.9,0,0,1,6.4,1,15.9,15.9,0,0,1,5.5,2.8,13.9,13.9,0,0,1,4.1,4.6,14.6,14.6,0,0,1,2,6.3h-9a8.2,8.2,0,0,0-3.2-5.2,9.3,9.3,0,0,0-5.8-1.8,11.3,11.3,0,0,0-5.4,1.2,10.2,10.2,0,0,0-3.6,3.2,14.6,14.6,0,0,0-2,4.6,23.3,23.3,0,0,0-.6,5.3,22.4,22.4,0,0,0,.6,5.2,13.5,13.5,0,0,0,2,4.4,9.3,9.3,0,0,0,3.6,3.2,11.3,11.3,0,0,0,5.4,1.2,10.5,10.5,0,0,0,7.2-2.3,10,10,0,0,0,3-6.7H663v-6.8h18v22.5h-6l-1-4.7A13.3,13.3,0,0,1,668.5,122.9Z"/><path class="cls-1" d="M720,120.1c-3.2,2.7-7.7,4.1-13.4,4.1s-10.3-1.4-13.4-4.1-4.8-7-4.8-12.6v-26h9.4v26a18.4,18.4,0,0,0,.3,3.3,6.4,6.4,0,0,0,1.3,2.9,6.7,6.7,0,0,0,2.6,2,10.3,10.3,0,0,0,4.6.8c3.4,0,5.7-.7,7-2.2s1.9-3.7,1.9-6.8v-26h9.4v26C724.9,113.1,723.3,117.3,720,120.1Z"/><path class="cls-1" d="M742.4,81.5v41.7H733V81.5Z"/><path class="cls-1" d="M769.1,81.5a21.9,21.9,0,0,1,7.7,1.3,15.4,15.4,0,0,1,6.1,3.8,18,18,0,0,1,4.1,6.5,24.6,24.6,0,0,1,1.5,9,28.6,28.6,0,0,1-1.2,8.5,19.2,19.2,0,0,1-3.6,6.6,16.8,16.8,0,0,1-6.1,4.4,20.2,20.2,0,0,1-8.5,1.6H750.6V81.5Zm-.7,34a13.4,13.4,0,0,0,4-.6,8.3,8.3,0,0,0,3.4-2.2,9.6,9.6,0,0,0,2.4-3.8,17,17,0,0,0,.9-5.9,24.9,24.9,0,0,0-.6-5.7,14.9,14.9,0,0,0-2.1-4.4,8.8,8.8,0,0,0-3.8-2.7,14.5,14.5,0,0,0-5.9-1H760v26.3Z"/><path class="cls-1" d="M827,81.5v7.7H804.4v9h20.7v7.1H804.4v10.2h23.1v7.7H795V81.5Z"/><rect class="cls-2" x="56.8" y="53.2" width="797.2" height="95.52"/></svg>
